<svg xmlns="http://www.w3.org/2000/svg" xmlns:xlink="http://www.w3.org/1999/xlink" width="17.047" height="16" viewBox="0 0 17.047 16"><defs><linearGradient id="a" x1="0.366" y1="-0.444" x2="0.34" y2="0.5" gradientUnits="objectBoundingBox"><stop offset="0" stop-color="#2d43e7"/><stop offset="1" stop-color="#9042e8"/></linearGradient><linearGradient id="b" x1="1" y1="0.042" x2="-0.278" y2="0.542" gradientUnits="objectBoundingBox"><stop offset="0" stop-color="#9042e8"/><stop offset="1" stop-color="#3143e7"/><stop offset="1" stop-color="#2d43e7"/></linearGradient></defs><g transform="translate(-86.712 -6.604)"><path d="M111.417-1386.853a10.029,10.029,0,0,0,4.561,6.334c3.777,2.138,6.52.909,6.057-1.069s-6.057-6.7-6.057-6.7,4.953-3.545,5.416-5.131-1.069-2.853-3.563-1.211S111.417-1386.853,111.417-1386.853Z" transform="translate(-18.327 1402)" fill="url(#a)"/><path d="M96.648-1399.55c-1.7,2.318-2.937,12.365-2.937,12.365s4.946.464,6.028-3.246,2.6-8.856,2.782-10.046S98.349-1401.868,96.648-1399.55Z" transform="translate(-7 1408.805)" fill="url(#b)"/></g></svg>